<?xml version="1.0" standalone="no"?><!DOCTYPE svg PUBLIC "-//W3C//DTD SVG 1.1//EN" "http://www.w3.org/Graphics/SVG/1.1/DTD/svg11.dtd"><svg t="1589018964885" class="icon" viewBox="0 0 1024 1024" version="1.1" xmlns="http://www.w3.org/2000/svg" p-id="6548" xmlns:xlink="http://www.w3.org/1999/xlink" width="200" height="200"><defs><style type="text/css"></style></defs><path d="M942.736185 442.001763l-0.423649-0.444115L544.561603 77.661777l-0.522909-0.460488c-13.612019-11.541871-42.680055-20.387329-67.043952 2.463098L82.349543 441.146279l-0.871857 0.853437c-8.190543 8.579399-12.700253 19.586081-12.700253 30.985712 0 25.996071 45.292556 47.14474 73.716932 47.14474l0.030699 0.029676 0.520863-0.032746c1.873674 0.032746 7.139607 0.650823 9.873882 3.170203 1.839905 1.696642 2.75167 4.728698 2.707668 9.011234l-0.019443 326.693574 0 1.440815c0.397043 50.66389 41.516556 91.631954 92.276636 91.638093l0.022513 0 161.010067 0 0.026606 0c2.260483 0 21.227464-0.407276 35.633568-13.561877 6.820336-6.227842 14.94948-17.596773 14.94948-36.392862L459.526905 798.052968l0.064468-1.049912-0.237407-1.319042c-0.13303-1.24127-1.306762-14.509459 7.78122-24.300452 7.443529-8.020674 20.494777-12.465916 38.787398-13.207813l0.798179-0.048095c8.165983-0.61296 32.358989 0.306992 46.119387 11.750625 7.769964 6.462179 11.645225 15.721053 11.844769 28.29851l0 103.95256c0 18.795065 8.130168 30.16502 14.94948 36.392862 14.406105 13.153578 33.370015 13.560854 35.710316 13.560854 0.00921 0 0.019443 0 0.028653 0l20.196994-0.019443 140.721998 0.01535 0.083911 0c50.600445-0.022513 91.582835-40.766472 92.203982-91.225701l0-2.25946L868.580255 532.473287c0-9.266038 7.988951-11.845793 14.691607-12.379958l1.886977-0.150426 0.267083-0.071631c28.701692-3.112897 70.004377-21.75242 70.004377-46.883797C955.432345 461.584774 950.923658 450.580139 942.736185 442.001763z" p-id="6549"></path></svg>