<?xml version="1.0" standalone="no"?><!DOCTYPE svg PUBLIC "-//W3C//DTD SVG 1.1//EN" "http://www.w3.org/Graphics/SVG/1.1/DTD/svg11.dtd"><svg t="1589018961154" class="icon" viewBox="0 0 1036 1024" version="1.1" xmlns="http://www.w3.org/2000/svg" p-id="6424" xmlns:xlink="http://www.w3.org/1999/xlink" width="202.34375" height="200"><defs><style type="text/css"></style></defs><path d="M859.9 938.2H657.3c-23.5 0-42.7-19.1-42.7-42.7V738.3c0-53.1-43.2-96.3-96.3-96.3-53.1 0-96.3 43.2-96.3 96.3v157.2c0 23.5-19.1 42.7-42.7 42.7H178.2c-23.5 0-42.7-19.1-42.7-42.7V485.4H0L490.4 65.9c16.1-13.7 39.4-13.7 55.5 0l490.4 419.5H902.6v410.1c0 23.5-19.2 42.7-42.7 42.7z m-168.5-76.8h134.4V408.6h2.5L518.1 143.2 207.9 408.6h4.5v452.8h132.9V738.3c0-95.4 77.6-173.1 173.1-173.1s173.1 77.6 173.1 173.1v123.1z" p-id="6425"></path></svg>